<svg xmlns="http://www.w3.org/2000/svg" width="256" height="80" class="svgbob"><style>.svgbob line, .svgbob path, .svgbob circle, .svgbob rect, .svgbob polygon {
    stroke: black;
    stroke-width: 2;
    stroke-opacity: 1;
    fill-opacity: 1;
    stroke-linecap: round;
    stroke-linejoin: miter;
}
.svgbob text {
    white-space: pre;
    fill: black;
    font-family: Iosevka Fixed, monospace;
    font-size: 14px;
}
.svgbob rect.backdrop {
    stroke: none;
    fill: transparent;
}
.svgbob .broken {
    stroke-dasharray: 8;
}
.svgbob .filled {
    fill: black;
}
.svgbob .bg_filled {
    fill: white;
    stroke-width: 1;
}
.svgbob .nofill {
    fill: white;
}
.svgbob .end_marked_arrow {
    marker-end: url(#arrow);
}
.svgbob .start_marked_arrow {
    marker-start: url(#arrow);
}
.svgbob .end_marked_diamond {
    marker-end: url(#diamond);
}
.svgbob .start_marked_diamond {
    marker-start: url(#diamond);
}
.svgbob .end_marked_circle {
    marker-end: url(#circle);
}
.svgbob .start_marked_circle {
    marker-start: url(#circle);
}
.svgbob .end_marked_open_circle {
    marker-end: url(#open_circle);
}
.svgbob .start_marked_open_circle {
    marker-start: url(#open_circle);
}
.svgbob .end_marked_big_open_circle {
    marker-end: url(#big_open_circle);
}
.svgbob .start_marked_big_open_circle {
    marker-start: url(#big_open_circle);
}<!--separator--></style><defs><marker id="arrow" viewBox="-2 -2 8 8" refX="4" refY="2" markerWidth="7" markerHeight="7" orient="auto-start-reverse"><polygon points="0,0 0,4 4,2 0,0"></polygon></marker><marker id="diamond" viewBox="-2 -2 8 8" refX="4" refY="2" markerWidth="7" markerHeight="7" orient="auto-start-reverse"><polygon points="0,2 2,0 4,2 2,4 0,2"></polygon></marker><marker id="circle" viewBox="0 0 8 8" refX="4" refY="4" markerWidth="7" markerHeight="7" orient="auto-start-reverse"><circle cx="4" cy="4" r="2" class="filled"></circle></marker><marker id="open_circle" viewBox="0 0 8 8" refX="4" refY="4" markerWidth="7" markerHeight="7" orient="auto-start-reverse"><circle cx="4" cy="4" r="2" class="bg_filled"></circle></marker><marker id="big_open_circle" viewBox="0 0 8 8" refX="4" refY="4" markerWidth="7" markerHeight="7" orient="auto-start-reverse"><circle cx="4" cy="4" r="3" class="bg_filled"></circle></marker></defs><rect class="backdrop" x="0" y="0" width="256" height="80"></rect><line x1="16" y1="8" x2="4" y2="8" class="solid end_marked_big_open_circle"></line><rect x="240" y="4" width="8" height="8" class="solid filled" rx="0"></rect><line x1="16" y1="24" x2="4" y2="24" class="solid end_marked_open_circle"></line><rect x="224" y="20" width="8" height="8" class="solid filled" rx="0"></rect><line x1="4" y1="40" x2="4" y2="40" class="solid end_marked_circle"></line><rect x="240" y="36" width="8" height="8" class="solid filled" rx="0"></rect><line x1="4" y1="56" x2="4" y2="56" class="solid end_marked_circle"></line><rect x="168" y="52" width="8" height="8" class="solid filled" rx="0"></rect><g><line x1="16" y1="8" x2="88" y2="8" class="solid"></line><path d="M 88,8 A 8,8 0,0,1 94,12" class="nofill"></path><line x1="94" y1="12" x2="108" y2="40" class="solid"></line><path d="M 128,8 A 8,8 0,0,0 122,12" class="nofill"></path><line x1="122" y1="12" x2="108" y2="40" class="solid"></line><line x1="128" y1="8" x2="192" y2="8" class="solid"></line><path d="M 192,8 A 8,8 0,0,1 198,12" class="nofill"></path><line x1="198" y1="12" x2="210" y2="36" class="solid"></line><line x1="16" y1="24" x2="204" y2="24" class="solid"></line><line x1="112" y1="32" x2="122" y2="52" class="solid"></line><line x1="116" y1="40" x2="200" y2="40" class="solid"></line><path d="M 210,36 A 8,8 0,0,0 216,40" class="nofill"></path><line x1="216" y1="40" x2="240" y2="40" class="solid"></line><path d="M 224,8 A 8,8 0,0,0 218,12" class="nofill"></path><line x1="218" y1="12" x2="206" y2="36" class="solid"></line><line x1="224" y1="8" x2="240" y2="8" class="solid"></line><line x1="212" y1="24" x2="224" y2="24" class="solid"></line><path d="M 206,36 A 8,8 0,0,1 200,40" class="nofill"></path><line x1="8" y1="56" x2="120" y2="56" class="solid"></line><path d="M 122,52 A 3,3 0,0,1 120,56" class="nofill"></path><path d="M 122,52 A 8,8 0,0,0 128,56" class="nofill"></path><line x1="128" y1="56" x2="168" y2="56" class="solid"></line></g><g><line x1="8" y1="40" x2="104" y2="40" class="solid"></line><path d="M 106,36 A 3,3 0,0,1 104,40" class="nofill"></path><path d="M 110,36 A 8,8 0,0,1 104,40" class="nofill"></path></g></svg>
