<svg xmlns="http://www.w3.org/2000/svg" width="288" height="112" class="svgbob"><style>.svgbob line, .svgbob path, .svgbob circle, .svgbob rect, .svgbob polygon {
    stroke: black;
    stroke-width: 2;
    stroke-opacity: 1;
    fill-opacity: 1;
    stroke-linecap: round;
    stroke-linejoin: miter;
}
.svgbob text {
    white-space: pre;
    fill: black;
    font-family: Iosevka Fixed, monospace;
    font-size: 14px;
}
.svgbob rect.backdrop {
    stroke: none;
    fill: transparent;
}
.svgbob .broken {
    stroke-dasharray: 8;
}
.svgbob .filled {
    fill: black;
}
.svgbob .bg_filled {
    fill: white;
    stroke-width: 1;
}
.svgbob .nofill {
    fill: white;
}
.svgbob .end_marked_arrow {
    marker-end: url(#arrow);
}
.svgbob .start_marked_arrow {
    marker-start: url(#arrow);
}
.svgbob .end_marked_diamond {
    marker-end: url(#diamond);
}
.svgbob .start_marked_diamond {
    marker-start: url(#diamond);
}
.svgbob .end_marked_circle {
    marker-end: url(#circle);
}
.svgbob .start_marked_circle {
    marker-start: url(#circle);
}
.svgbob .end_marked_open_circle {
    marker-end: url(#open_circle);
}
.svgbob .start_marked_open_circle {
    marker-start: url(#open_circle);
}
.svgbob .end_marked_big_open_circle {
    marker-end: url(#big_open_circle);
}
.svgbob .start_marked_big_open_circle {
    marker-start: url(#big_open_circle);
}<!--separator--></style><defs><marker id="arrow" viewBox="-2 -2 8 8" refX="4" refY="2" markerWidth="7" markerHeight="7" orient="auto-start-reverse"><polygon points="0,0 0,4 4,2 0,0"></polygon></marker><marker id="diamond" viewBox="-2 -2 8 8" refX="4" refY="2" markerWidth="7" markerHeight="7" orient="auto-start-reverse"><polygon points="0,2 2,0 4,2 2,4 0,2"></polygon></marker><marker id="circle" viewBox="0 0 8 8" refX="4" refY="4" markerWidth="7" markerHeight="7" orient="auto-start-reverse"><circle cx="4" cy="4" r="2" class="filled"></circle></marker><marker id="open_circle" viewBox="0 0 8 8" refX="4" refY="4" markerWidth="7" markerHeight="7" orient="auto-start-reverse"><circle cx="4" cy="4" r="2" class="bg_filled"></circle></marker><marker id="big_open_circle" viewBox="0 0 8 8" refX="4" refY="4" markerWidth="7" markerHeight="7" orient="auto-start-reverse"><circle cx="4" cy="4" r="3" class="bg_filled"></circle></marker></defs><rect class="backdrop" x="0" y="0" width="288" height="112"></rect><text x="42" y="28" >1.</text><text x="42" y="44" >1.</text><text x="42" y="60" >2.</text><text x="42" y="76" >2.</text><text x="42" y="92" >3.</text><polygon points="256,36 264,40 256,44" class="filled"></polygon><rect x="224" y="52" width="8" height="8" class="solid filled" rx="0"></rect><polygon points="272,52 280,56 272,60" class="filled"></polygon><rect x="216" y="84" width="8" height="8" class="solid filled" rx="0"></rect><text x="2" y="44" >Core</text><text x="2" y="60" >Core</text><g><line x1="72" y1="24" x2="80" y2="24" class="solid"></line><path d="M 80,24 A 4,4 0,0,1 84,28" class="nofill"></path><line x1="84" y1="28" x2="84" y2="36" class="solid"></line><path d="M 84,36 A 4,4 0,0,0 88,40" class="nofill"></path><line x1="88" y1="40" x2="256" y2="40" class="solid"></line></g><g><path d="M 88,56 A 4,4 0,0,0 84,60" class="nofill"></path><line x1="84" y1="60" x2="84" y2="68" class="solid"></line><line x1="88" y1="56" x2="224" y2="56" class="solid"></line><line x1="72" y1="72" x2="80" y2="72" class="solid"></line><path d="M 84,68 A 4,4 0,0,1 80,72" class="nofill"></path></g><g><path d="M 248,56 A 4,4 0,0,0 244,60" class="nofill"></path><line x1="244" y1="60" x2="244" y2="84" class="solid"></line><line x1="248" y1="56" x2="272" y2="56" class="solid"></line><line x1="224" y1="88" x2="240" y2="88" class="solid"></line><path d="M 244,84 A 4,4 0,0,1 240,88" class="nofill"></path></g></svg>
